<?xml version="1.0" encoding="utf-8"?><svg version="1.1" id="Layer_1" xmlns="http://www.w3.org/2000/svg" xmlns:xlink="http://www.w3.org/1999/xlink" x="0px" y="0px" viewBox="0 0 107.7 122.88" style="enable-background:new 0 0 107.7 122.88" xml:space="preserve"><style type="text/css">.st0{fill-rule:evenodd;clip-rule:evenodd;}</style><g><path fill='white' class="st0" d="M10.45,93.26c-0.35-3.69-0.3-7.28-0.38-10.96l-6.18-0.23c-3.49-0.07-5.36-3.84-2.48-8.25l4.78-9.78 c3.49-7.14,2.11-5.8,2.36-13.32c0.16-4.86,1.07-9.26,3.26-12.9c-3.49-1.53-6.99-3.05-10.48-4.57 c64.78-89.8,152.85,26.68,77.22,64.05l3.47,25.58h-46.8c1.13-12.16,6.87-9.45-7.36-6.89c-12.69,2.28-22.63-0.69-16.21-13.45 C11.01,99.63,10.57,96.3,10.45,93.26L10.45,93.26z M52.36,36.08c0.39-0.39,0.87-0.59,1.4-0.59c0.53,0,1.01,0.2,1.4,0.59l2.12,2.12 c0.57-0.37,1.18-0.7,1.81-0.98c0.63-0.3,1.27-0.53,1.92-0.76v-3.26c0-0.55,0.18-1.01,0.57-1.4c0.39-0.39,0.85-0.57,1.4-0.57h4.09 c0.52,0,0.98,0.18,1.38,0.57c0.39,0.39,0.59,0.85,0.59,1.4v2.99c0.68,0.17,1.35,0.37,1.99,0.61c0.65,0.24,1.25,0.53,1.83,0.85 l2.36-2.32c0.37-0.39,0.81-0.59,1.36-0.59c0.53,0,1,0.2,1.4,0.59l2.86,2.88c0.39,0.39,0.59,0.87,0.59,1.4c0,0.53-0.2,1.01-0.59,1.4 l-2.12,2.12c0.37,0.57,0.68,1.18,0.98,1.81c0.3,0.63,0.53,1.27,0.76,1.94h3.26c0.55,0,1.01,0.18,1.4,0.57 c0.39,0.39,0.57,0.85,0.57,1.4v4.09c0,0.52-0.18,0.98-0.57,1.38c-0.39,0.39-0.85,0.59-1.4,0.59h-2.99 c-0.17,0.68-0.37,1.35-0.61,1.99c-0.24,0.65-0.53,1.27-0.85,1.88l2.32,2.32c0.39,0.37,0.59,0.81,0.59,1.36c0,0.53-0.2,1-0.59,1.4 l-2.88,2.91c-0.39,0.37-0.87,0.55-1.4,0.55c-0.53,0-1.01-0.18-1.4-0.55l-2.12-2.16c-0.57,0.37-1.18,0.68-1.81,0.98 c-0.63,0.3-1.27,0.53-1.92,0.76v3.26c0,0.55-0.18,1.01-0.57,1.4c-0.39,0.39-0.85,0.57-1.4,0.57l-4.09,0 c-0.52,0-0.98-0.18-1.38-0.57c-0.39-0.39-0.59-0.85-0.59-1.4v-2.99c-0.68-0.17-1.35-0.37-1.99-0.61c-0.65-0.24-1.27-0.53-1.88-0.85 l-2.32,2.32c-0.37,0.39-0.83,0.59-1.38,0.59c-0.55,0-1.01-0.2-1.38-0.59l-2.91-2.88c-0.37-0.41-0.55-0.87-0.55-1.4 c0-0.53,0.18-1.01,0.55-1.4l2.16-2.12c-0.37-0.57-0.68-1.18-0.98-1.81c-0.3-0.63-0.53-1.27-0.76-1.92h-3.26 c-0.55,0-1.01-0.18-1.4-0.57c-0.39-0.39-0.57-0.85-0.57-1.4v-4.09c0-0.52,0.18-0.98,0.57-1.38c0.39-0.39,0.85-0.59,1.4-0.59h2.99 c0.17-0.66,0.37-1.31,0.61-1.97c0.24-0.66,0.53-1.27,0.85-1.86l-2.32-2.36c-0.39-0.37-0.59-0.81-0.59-1.36c0-0.53,0.2-1,0.59-1.4 l2.88-2.86L52.36,36.08L52.36,36.08z M29.7,58.08c0.26-0.18,0.52-0.24,0.81-0.18c0.3,0.06,0.53,0.2,0.7,0.46l0.96,1.35 c0.35-0.15,0.7-0.26,1.07-0.37c0.37-0.09,0.74-0.17,1.12-0.22l0.31-1.77c0.06-0.3,0.2-0.53,0.44-0.7c0.24-0.17,0.52-0.22,0.81-0.18 l2.21,0.39c0.28,0.06,0.52,0.2,0.7,0.44c0.17,0.24,0.24,0.52,0.18,0.81l-0.28,1.62c0.35,0.15,0.7,0.33,1.01,0.52 c0.33,0.2,0.63,0.41,0.92,0.63l1.49-1.03c0.24-0.18,0.5-0.24,0.79-0.18c0.3,0.06,0.52,0.2,0.7,0.46l1.29,1.83 c0.18,0.26,0.24,0.52,0.18,0.81c-0.06,0.3-0.2,0.53-0.46,0.7l-1.35,0.96c0.15,0.35,0.26,0.7,0.37,1.07 c0.09,0.37,0.17,0.74,0.22,1.12l1.77,0.31c0.3,0.06,0.53,0.2,0.7,0.44c0.17,0.24,0.22,0.52,0.18,0.81l-0.39,2.21 c-0.06,0.28-0.2,0.52-0.44,0.7c-0.24,0.17-0.52,0.24-0.81,0.18l-1.62-0.28c-0.15,0.35-0.33,0.7-0.52,1.01 c-0.2,0.33-0.41,0.65-0.63,0.94l1.03,1.47c0.18,0.24,0.24,0.5,0.18,0.79c-0.06,0.3-0.2,0.52-0.46,0.7l-1.83,1.31 c-0.26,0.17-0.52,0.22-0.81,0.17c-0.3-0.06-0.53-0.2-0.7-0.42l-0.96-1.36c-0.35,0.15-0.7,0.26-1.07,0.37 c-0.37,0.09-0.74,0.17-1.12,0.22l-0.31,1.77c-0.06,0.3-0.2,0.53-0.44,0.7c-0.24,0.17-0.52,0.22-0.81,0.18l-2.21-0.39 c-0.28-0.06-0.52-0.2-0.7-0.44c-0.17-0.24-0.24-0.52-0.18-0.81l0.28-1.62c-0.35-0.15-0.7-0.33-1.01-0.52 c-0.33-0.2-0.65-0.41-0.94-0.63l-1.48,1.03c-0.24,0.18-0.5,0.24-0.81,0.18c-0.29-0.06-0.53-0.2-0.7-0.44l-1.31-1.83 c-0.17-0.26-0.22-0.52-0.17-0.81c0.06-0.29,0.18-0.53,0.42-0.7l1.38-0.96c-0.15-0.35-0.26-0.7-0.37-1.07 c-0.09-0.37-0.17-0.74-0.22-1.12l-1.77-0.31c-0.29-0.06-0.53-0.2-0.7-0.44c-0.17-0.24-0.22-0.52-0.18-0.81l0.39-2.21 c0.06-0.28,0.2-0.52,0.44-0.7c0.24-0.18,0.52-0.24,0.81-0.18l1.62,0.28c0.15-0.35,0.31-0.68,0.52-1.01 c0.2-0.33,0.41-0.65,0.63-0.92l-1.03-1.49c-0.18-0.24-0.24-0.5-0.18-0.79c0.06-0.3,0.2-0.52,0.46-0.7l1.83-1.29L29.7,58.08 L29.7,58.08z M36.08,63.72c-0.53-0.09-1.05-0.07-1.57,0.04c-0.52,0.13-0.98,0.33-1.38,0.61c-0.41,0.3-0.76,0.66-1.05,1.11 c-0.3,0.44-0.48,0.94-0.57,1.48c-0.09,0.53-0.07,1.05,0.04,1.57c0.13,0.52,0.33,0.98,0.61,1.38c0.3,0.41,0.66,0.76,1.11,1.05 c0.44,0.3,0.94,0.48,1.47,0.57c0.53,0.09,1.05,0.07,1.57-0.04c0.52-0.13,0.98-0.33,1.38-0.61c0.41-0.3,0.76-0.66,1.05-1.11 c0.3-0.44,0.48-0.94,0.57-1.48c0.09-0.53,0.07-1.05-0.04-1.57c-0.13-0.52-0.33-0.98-0.61-1.38c-0.3-0.41-0.66-0.76-1.11-1.05 C37.11,64,36.61,63.82,36.08,63.72L36.08,63.72z M65.54,43.37c-1.11,0-2.14,0.2-3.13,0.63c-0.98,0.42-1.83,1-2.56,1.71 c-0.72,0.72-1.29,1.59-1.71,2.56c-0.42,1-0.63,2.03-0.63,3.13c0,1.11,0.2,2.14,0.63,3.13c0.42,0.98,1,1.83,1.71,2.56 c0.72,0.72,1.59,1.29,2.56,1.71c0.98,0.42,2.03,0.63,3.13,0.63c1.11,0,2.14-0.2,3.13-0.63c0.98-0.42,1.83-1,2.56-1.71 c0.72-0.72,1.29-1.59,1.71-2.56c0.42-0.98,0.63-2.03,0.63-3.13c0-1.11-0.2-2.14-0.63-3.13c-0.42-0.98-1-1.83-1.71-2.56 c-0.72-0.72-1.59-1.29-2.56-1.71C67.68,43.57,66.65,43.37,65.54,43.37L65.54,43.37z"/></g></svg>